<svg xmlns="http://www.w3.org/2000/svg" width="28" height="28" viewBox="0 0 28 28"><defs><style>.a{fill:#fff;}.b{fill:#20c05c;fill-rule:evenodd;}</style></defs><g transform="translate(-10 -10)"><path class="a" d="M14,28A14,14,0,1,0,0,14,14,14,0,0,0,14,28Z" transform="translate(10 10)"/><path class="b" d="M27.564,12.941a1.6,1.6,0,0,0-1.007-1.292,13.265,13.265,0,0,0-2.468-.46,19.083,19.083,0,0,0-2.618-.079,1.56,1.56,0,0,0-.864-1.185,6.684,6.684,0,0,0-3.257-.216,1.742,1.742,0,0,0-.95.608,1.416,1.416,0,0,0-.238.841c0,.209.006.7.011,1.14,0,.366.009.7.011.8v.032a.709.709,0,0,1-.707.71h-1.8a2.153,2.153,0,0,0-.9.167,1.252,1.252,0,0,0-.5.4A1.823,1.823,0,0,0,12,15.54a9.748,9.748,0,0,0,.083.976A28.133,28.133,0,0,0,13.2,21.551a1.292,1.292,0,0,0,.719.765,19.29,19.29,0,0,0,3.776.906c.154.02.3.043.433.065.68.11,1.133.183,1.422-.425,0,0,.069-.182.163-.445a7.262,7.262,0,0,0,.343-2.316.044.044,0,1,1,.087,0c0,.023,0,.049,0,.079,0,.5-.017,1.827,1.027,2.2a13.125,13.125,0,0,0,2.261.4c.831.1,1.435.424,1.435,2.566,0,1.3-.273,1.481-1.7,1.481H23.06c-1.076,0-1.489,0-1.489-.891,0-.681.614-.674,1.135-.668h.142c.153,0,.14-.072.109-.24a2.094,2.094,0,0,1-.042-.4,1.487,1.487,0,0,1,.09-.472c.052-.162.081-.252-.074-.256-1.88-.052-2.986,0-2.986,2.358,0,2.143.817,2.541,3.485,2.541,2.092,0,2.829-.069,3.693-2.759a24.99,24.99,0,0,0,.834-4.874A53.721,53.721,0,0,0,27.564,12.941Zm-3.647,5.741a3.812,3.812,0,0,0-.739.045c.065-.529.283-1.178,1.053-1.151.853.029.972.839.975,1.387A3.5,3.5,0,0,0,23.917,18.682ZM13.6,13.319h0a2.676,2.676,0,0,0-1.113.213l-.183.09h0a.04.04,0,0,1,.013-.02L15.8,10.13a.038.038,0,0,1,.021-.011l-.061.116a2.042,2.042,0,0,0-.2.918v.005c0,.413.02,1.859.022,1.968v.007a.187.187,0,0,1-.186.187Z" transform="translate(4 4.8)"/></g></svg>