<svg xmlns="http://www.w3.org/2000/svg" width="28" height="28" viewBox="0 0 28 28"><defs><style>.a{fill:#fff;}.b{fill:none;stroke:#2b6abf;stroke-linecap:round;stroke-linejoin:round;stroke-width:1.6px;}</style></defs><g transform="translate(-10 -10)"><path class="a" d="M14,28A14,14,0,1,0,0,14,14,14,0,0,0,14,28Z" transform="translate(10 10)"/><g transform="translate(13.307 12)"><path class="b" d="M4.59,6H17.309A1.6,1.6,0,0,1,18.9,7.59v9.539a1.6,1.6,0,0,1-1.59,1.59H4.59A1.6,1.6,0,0,1,3,17.129V7.59A1.6,1.6,0,0,1,4.59,6Z"/><path class="b" d="M18.9,9l-7.949,5.564L3,9" transform="translate(0 -1.41)"/></g></g></svg>