<svg xmlns="http://www.w3.org/2000/svg" width="28" height="28" viewBox="0 0 28 28"><defs><style>.a{fill:#fff;}.b{fill:#4285f4;}.c{fill:#34a853;}.d{fill:#fbbc05;}.e{fill:#eb4335;}</style></defs><g transform="translate(6 6)"><path class="a" d="M14,28A14,14,0,1,0,0,14,14,14,0,0,0,14,28Z" transform="translate(-6 -6)"/><path class="b" d="M138.4,108.433a7.009,7.009,0,0,0-.173-1.672H130.55V109.8h4.507a4,4,0,0,1-1.672,2.653l-.015.1,2.428,1.881.168.017a8,8,0,0,0,2.435-6.016" transform="translate(-122.401 -100.43)"/><path class="c" d="M21.231,162.931a7.8,7.8,0,0,0,5.416-1.981l-2.581-2a4.841,4.841,0,0,1-2.835.818,4.924,4.924,0,0,1-4.653-3.4l-.1.008-2.525,1.954-.033.092a8.173,8.173,0,0,0,7.306,4.507" transform="translate(-13.053 -146.931)"/><path class="d" d="M3.526,76.641a5.035,5.035,0,0,1-.273-1.618,5.291,5.291,0,0,1,.263-1.618l0-.108L.956,71.312l-.084.04a8.161,8.161,0,0,0,0,7.343l2.653-2.054" transform="translate(0 -67.022)"/><path class="e" d="M21.214,3.162A4.517,4.517,0,0,1,24.369,4.38l2.3-2.254A7.829,7.829,0,0,0,21.214,0a8.152,8.152,0,0,0-7.289,4.507l2.638,2.054a4.933,4.933,0,0,1,4.651-3.4" transform="translate(-13.053 0)"/></g></svg>